<?xml version="1.0" standalone="no"?>
<!DOCTYPE svg PUBLIC "-//W3C//DTD SVG 20010904//EN"
 "http://www.w3.org/TR/2001/REC-SVG-20010904/DTD/svg10.dtd">
<svg version="1.0" xmlns="http://www.w3.org/2000/svg"
 width="764.000000pt" height="676.000000pt" viewBox="0 0 764.000000 676.000000"
 preserveAspectRatio="xMidYMid meet">

<g transform="translate(0.000000,676.000000) scale(0.100000,-0.100000)"
fill="#000000" stroke="none">
<path d="M3640 6460 c-366 -33 -723 -128 -1043 -279 -660 -309 -1222 -881
-1521 -1548 -140 -311 -219 -620 -257 -999 -15 -152 -6 -561 15 -699 124 -807
533 -1528 1144 -2013 435 -345 921 -555 1492 -643 197 -31 666 -34 860 -6 581
85 1047 280 1515 636 126 95 397 364 501 496 257 325 456 711 569 1100 85 295
118 531 117 850 -1 420 -65 771 -209 1130 -271 681 -721 1206 -1346 1574 -370
217 -822 358 -1282 401 -124 11 -426 11 -555 0z m659 -459 c540 -93 1030 -330
1434 -695 341 -308 594 -695 726 -1110 45 -141 67 -241 98 -449 24 -159 28
-211 28 -417 -1 -176 -5 -263 -19 -348 -90 -575 -359 -1095 -781 -1517 -146
-146 -247 -228 -425 -347 -224 -149 -495 -271 -750 -337 -164 -43 -275 -59
-525 -76 -314 -21 -526 -5 -789 60 -723 178 -1376 685 -1731 1345 -183 340
-271 651 -296 1043 -26 404 10 715 122 1048 224 669 741 1260 1364 1558 234
113 501 200 735 240 160 28 175 29 445 26 190 -2 266 -7 364 -24z"/>
<path d="M3830 5037 c-1041 -418 -1126 -454 -1134 -479 -16 -45 7 -73 83 -102
202 -76 487 -188 493 -194 4 -4 55 -167 114 -362 63 -213 112 -360 122 -367
38 -30 64 -15 232 127 91 77 175 143 188 146 13 4 35 1 49 -5 15 -7 152 -107
305 -222 244 -184 283 -210 311 -207 22 2 35 11 44 28 7 14 96 444 198 955
102 512 192 965 201 1007 16 72 16 79 0 102 -12 20 -25 26 -49 25 -17 0 -538
-204 -1157 -452z m710 -1 c0 -7 -204 -209 -454 -449 -515 -495 -476 -444 -497
-644 -11 -112 -23 -141 -52 -130 -14 5 -126 393 -135 465 -4 40 -2 45 35 80
22 20 175 122 339 227 165 104 400 254 523 332 123 78 228 140 232 137 5 -3 9
-11 9 -18z"/>
<path d="M3087 3388 c-8 -13 -105 -478 -217 -1035 -195 -973 -202 -1013 -186
-1038 12 -19 25 -25 49 -24 17 0 538 204 1157 452 1041 418 1126 454 1134 479
16 45 -7 73 -83 102 -202 76 -487 188 -493 194 -4 4 -55 167 -114 362 -63 213
-112 360 -122 368 -38 29 -64 14 -232 -128 -91 -77 -175 -143 -188 -146 -13
-4 -35 -1 -49 5 -15 7 -151 106 -304 222 -296 223 -322 236 -352 187z m1166
-628 c32 -113 61 -226 64 -253 6 -46 4 -49 -34 -85 -22 -20 -175 -122 -339
-227 -165 -104 -400 -254 -523 -332 -123 -78 -228 -140 -232 -137 -5 3 -9 11
-9 18 0 7 204 209 454 449 514 494 475 444 496 642 7 61 17 116 23 123 28 35
42 7 100 -198z"/>
</g>
</svg>
